<svg xmlns="http://www.w3.org/2000/svg" width="900" height="600" viewBox="0 0 900 600">
  <rect width="900" height="600" fill="#ffffff"/><rect x="24" y="24" width="852" height="552" fill="none" stroke="#111827" stroke-width="16"/><path d="M450 430C300 300 230 245 230 160c0-62 48-110 110-110 42 0 82 24 110 61 28-37 68-61 110-61 62 0 110 48 110 110 0 85-70 140-220 270z" fill="#ef4444" stroke="#7f1d1d" stroke-width="12"/><path d="M410 70v145M490 70v145M355 245h190" stroke="#ffffff" stroke-width="18" stroke-linecap="round"/><path d="M130 120h95v95h-95zM675 380h95v95h-95z" fill="#111827"/><text x="450" y="545" text-anchor="middle" font-family="Arial" font-size="42" font-weight="700" fill="#111827">HEART_001</text>
</svg>
